
PLOT

While on a joyride with the headlights turned off, two men hit and kill another man carrying a
satchel full of money. The two men decide to take the money and throw the body into a pond and bury the money in a
coal hill. The next morning the police discover the body of a kidnapped 12-year blind girl, Melody, in a warehouse near
the site of the hit-and-run. They determine that the kidnapper saw the girl's father bringing the ransom to him and
also witnessed the hit-and-run and the men stealing the ransom.
 
http://www.imdb.com/title/tt0990361/

Encoded By .......: BigPerm
Runtime ..........: 1h 57mn
File Size ........: 914 MB
Resolution .......: 704 x 304
IMDb URL .........: http://www.imdb.com/title/tt0990361/
Genre ............: Crime,Mystery,Thriller
Language .........: French
Subtitles ........: English
Video
ID : 0
Format : MPEG-4 Visual
Format profile : Advanced Simple@L5
Format settings, BVOP : Yes
Format settings, QPel : No
Format settings, GMC : No warppoints
Format settings, Matrix : Default (H.263)
Muxing mode : Packed bitstream
Codec ID : XVID
Codec ID/Hint : XviD
Duration : 1h 57mn
Bit rate : 852 Kbps
Width : 704 pixels
Height : 304 pixels
Display aspect ratio : 2.35:1
Frame rate : 29.970 fps
Color space : YUV
Chroma subsampling : 4:2:0
Bit depth : 8 bits
Scan type : Progressive
Compression mode : Lossy
Bits/(Pixel*Frame) : 0.133
Stream size : 716 MiB (78%)
Writing library : XviD 1.2.1 (UTC 2008-12-04)
Audio
ID : 1
Format : AC-3
Format/Info : Audio Coding 3
Mode extension : CM (complete main)
Codec ID : 2000
Duration : 1h 57mn
Bit rate mode : Constant
Bit rate : 224 Kbps
Channel(s) : 2 channels
Channel positions : Front: L R
Sampling rate : 48.0 KHz
Bit depth : 16 bits
Compression mode : Lossy
Stream size : 188 MiB (21%)
Alignment : Split accross interleaves
Interleave, duration : 33 ms (1.00 video frame)
Interleave, preload duration : 500 ms
 
http://www.shotpix.com/images/05656345215908588029.png
 
http://www.shotpix.com/images/83534716747783543606.png
 
http://www.shotpix.com/images/99278057994757546521.png
 
http://www.shotpix.com/images/35519044715278971988.png
 
http://www.shotpix.com/images/50145698107646382714.png